<?xml version="1.0" encoding="iso-8859-1"?>
<!-- Generator: Adobe Illustrator 19.0.0, SVG Export Plug-In . SVG Version: 6.00 Build 0)  -->
<svg version="1.1" id="Layer_1" xmlns="http://www.w3.org/2000/svg" xmlns:xlink="http://www.w3.org/1999/xlink" x="0px" y="0px"
	 viewBox="0 0 512 512" style="enable-background:new 0 0 512 512;" xml:space="preserve">
<g>
	<g>
		<path d="M338.717,99.031c1.274-1.263,2.484-2.553,3.62-3.867c10.361-11.977,13.84-24.696,9.793-35.812
			c-7.865-21.609-41.825-28.419-77.311-15.503c-30.834,11.224-51.198,33.112-50.853,52.834
			c-30.125,8.486-47.874,23.565-47.874,41.065c0.001,27.348,43.626,47.97,101.477,47.97s101.476-20.621,101.476-47.968
			C379.045,121.759,364.24,107.797,338.717,99.031z M280.182,58.582c10.737-3.907,20.896-5.605,29.615-5.605
			c14.517,0,25.043,4.704,27.603,11.738c1.986,5.455-0.535,12.816-6.918,20.193c-7.559,8.738-19.269,16.298-32.971,21.285
			c-28.614,10.414-53.121,5.126-57.218-6.133C236.195,88.801,251.569,68.997,280.182,58.582z M340.691,158.924
			c-16.733,7.17-39.15,11.12-63.123,11.12s-46.39-3.948-63.123-11.12c-14.199-6.085-22.677-14.002-22.677-21.174
			c0.001-9.726,14.648-19.92,37.021-26.135c7.202,10.277,21.666,15.838,39.192,15.838c10.795-0.001,22.754-2.111,34.891-6.527
			c7.446-2.711,14.426-6.12,20.706-10.049c23.933,6.123,39.79,16.745,39.79,26.874C363.368,144.922,354.89,152.838,340.691,158.924z
			"/>
	</g>
</g>
<g>
	<g>
		<path d="M493.353,366.687c-10.082-10.083-22.662-16.577-35.422-18.288c-10.086-1.351-19.406,0.365-27.038,4.855
			c-7.774-8.127-18.2-15.537-31.152-22.132c6.857-8.161,10.446-17.024,10.446-26.267c0-25.638-27.837-48.083-73.824-60.549
			c5.445-3.98,10.455-8.097,14.948-12.316c19.962-18.744,27.807-37.728,22.103-53.416c-0.41-1.145-0.886-2.248-1.455-3.371
			l-13.982,7.089c0.27,0.531,0.491,1.042,0.691,1.6c6.84,18.814-27.679,55.121-88.147,77.136
			c-60.482,22.005-110.26,16.385-117.107-2.42c-5.957-16.38,19.192-43.988,58.496-64.216l-7.173-13.939
			c-22.451,11.556-40.676,25.1-52.704,39.169c-14.391,16.833-16.381,30.237-14.656,39.542
			c-22.939,12.492-35.482,28.553-35.482,45.691c0,9.247,3.593,18.114,10.456,26.278c-19.162,9.791-33.08,21.539-40.535,34.343
			l13.548,7.887c6.57-11.287,20.124-21.893,39.328-30.827c6.836,5.061,15.136,9.718,24.807,13.864
			c28.587,12.251,66.425,18.998,106.543,18.998c40.118,0,77.957-6.747,106.543-18.998c9.669-4.144,17.967-8.799,24.801-13.86
			c13.64,6.357,24.547,13.657,32.051,21.425c-8.979,13.233-8.584,31.975,0.313,48.694c-26.119,27.486-92.017,46.344-163.709,46.344
			c-52.22,0-101.526-9.661-135.269-26.501c-4.287-2.143-8.285-4.391-11.962-6.712c0.597-2.356,0.923-4.785,0.923-7.282
			c0-21.976-24.1-39.19-54.866-39.19C24.102,379.317,0,396.532,0,418.507s24.099,39.19,54.866,39.19
			c19.807,0,36.839-7.141,46.468-18.088c3.867,2.398,8.025,4.712,12.433,6.916c35.85,17.892,87.707,28.153,142.274,28.153
			c39.816,0,77.869-5.32,110.046-15.388c27.465-8.591,48.928-20.103,62.801-33.59c0.852,0.952,1.723,1.894,2.641,2.81
			c10.082,10.082,22.662,16.576,35.422,18.286c2.249,0.301,4.46,0.45,6.624,0.45c10.861,0,20.504-3.761,27.629-10.885
			C518.25,419.317,514.727,388.061,493.353,366.687z M356.41,341.992c-26.679,11.433-62.325,17.731-100.369,17.731
			c-38.045,0-73.689-6.297-100.368-17.731c-24.214-10.379-38.103-23.913-38.103-37.135c0-11.001,9.38-22.063,26.579-31.54
			c8.603,10.125,24.41,16.206,45.811,17.401c2.633,0.147,5.324,0.221,8.07,0.219c23.389,0,50.684-5.292,77.852-15.176
			c15.228-5.544,29.557-12.22,42.366-19.664c45.739,9.511,76.264,28.937,76.264,48.761
			C394.512,318.079,380.624,331.613,356.41,341.992z M54.866,442.021c-21.243,0-39.19-10.768-39.19-23.514
			c0-12.746,17.947-23.514,39.19-23.514c21.243,0,39.19,10.768,39.19,23.514C94.056,431.253,76.109,442.021,54.866,442.021z
			 M490.12,425.277c-5.009,5.01-12.497,7.134-21.086,5.984c-9.372-1.256-18.755-6.169-26.42-13.833
			c-15.262-15.262-18.784-36.574-7.852-47.507c4.12-4.12,9.917-6.289,16.623-6.289c1.448,0,2.938,0.101,4.464,0.305
			c9.372,1.256,18.755,6.169,26.42,13.833C497.53,393.033,501.053,414.345,490.12,425.277z"/>
	</g>
</g>
<g>
</g>
<g>
</g>
<g>
</g>
<g>
</g>
<g>
</g>
<g>
</g>
<g>
</g>
<g>
</g>
<g>
</g>
<g>
</g>
<g>
</g>
<g>
</g>
<g>
</g>
<g>
</g>
<g>
</g>
</svg>
